Results
version=1
nRows=9
nColumns=24
inDegrees=yes
endheader
time	pelvis_tilt	pelvis_list	pelvis_rotation	pelvis_tx	pelvis_ty	pelvis_tz	hip_flexion_r	hip_adduction_r	hip_rotation_r	knee_angle_r	ankle_angle_r	subtalar_angle_r	mtp_angle_r	hip_flexion_l	hip_adduction_l	hip_rotation_l	knee_angle_l	ankle_angle_l	subtalar_angle_l	mtp_angle_l	lumbar_extension	lumbar_bending	lumbar_rotation
      1.40033333	     -9.01860253	    -13.24779586	    -13.06298238	      0.79081318	      0.95291680	      0.32162347	    -11.05406190	     14.52310102	      5.50444380	     -8.85820933	     11.52571395	     -2.67913498	     -0.25081046	     41.13385773	    -20.19318924	    -12.91607649	      0.77163132	      3.02765897	      0.40440026	      2.02760004	     -4.96639822	     14.63245049	     11.03930069
      1.40450000	     -8.88236921	    -13.15649077	    -13.50676657	      0.79662044	      0.95244798	      0.32238121	    -11.48746341	     14.22704188	      5.98429711	     -9.08481626	     11.52682073	     -2.62546128	      0.22326046	     40.82753926	    -20.47403172	    -13.04827944	      0.33752121	      3.21748498	      0.20548266	      2.00440415	     -5.20495617	     14.34968763	     11.70254523
      1.40866667	     -8.87100514	    -13.13279425	    -13.78236990	      0.80256396	      0.95160695	      0.32268597	    -11.79454044	     14.03760218	      6.23628324	     -9.28609695	     11.48321194	     -2.49210861	      0.34683529	     40.74206251	    -20.68153813	    -12.83009023	     -0.16251631	      3.42299614	     -0.18162729	      2.00028951	     -5.25259702	     14.23095903	     11.87760102
      1.41283333	     -8.80198009	    -13.03710754	    -14.08682003	      0.80865043	      0.95096590	      0.32306906	    -12.15383717	     13.74723324	      6.50283484	     -9.47193413	     11.37799437	     -2.36735368	      0.63276533	     40.52922612	    -20.84243328	    -12.75489209	     -0.63498903	      3.59550605	     -0.50363187	      2.00071599	     -5.32815603	     13.99320409	     12.29963093
      1.41700000	     -8.71622949	    -12.96874456	    -14.38838555	      0.81472873	      0.95037820	      0.32340763	    -12.51976229	     13.47480124	      6.76241794	     -9.68361701	     11.27589837	     -2.22555885	      0.95465166	     40.29492821	    -21.02042625	    -12.69124426	     -1.13449379	      3.75237822	     -0.77156382	      2.00977651	     -5.44537051	     13.79368694	     12.60313259
      1.42116667	     -8.64120285	    -12.89080210	    -14.66672761	      0.82088934	      0.94979088	      0.32366213	    -12.86546983	     13.18995570	      6.97809358	     -9.89688515	     11.14672521	     -2.05894741	      1.29754399	     40.05986706	    -21.16506665	    -12.61454281	     -1.63176421	      3.88239578	     -1.04769431	      2.02590060	     -5.53155081	     13.59024599	     12.87165898
      1.42533333	     -8.61729520	    -12.85448495	    -14.92070594	      0.82706854	      0.94910561	      0.32381446	    -13.15822065	     12.96031228	      7.17721766	    -10.12246897	     11.01260319	     -1.86301192	      1.46115132	     39.89840992	    -21.32486407	    -12.46529644	     -2.15128656	      3.96812762	     -1.31183619	      2.03862173	     -5.56616765	     13.46512724	     12.99167667
      1.42950000	     -8.54177164	    -12.75438305	    -15.17093266	      0.83337157	      0.94859376	      0.32394000	    -13.48097823	     12.64208156	      7.32625350	    -10.34828801	     10.82669349	     -1.66092177	      1.70843466	     39.62500655	    -21.41070153	    -12.41716620	     -2.61569505	      3.98036252	     -1.60730656	      2.06267149	     -5.62096115	     13.24668644	     13.29818177
      1.43366667	     -8.45320796	    -12.64489624	    -15.41241006	      0.83973914	      0.94814436	      0.32402742	    -13.80409394	     12.30649205	      7.45800056	    -10.58594192	     10.60889724	     -1.45296638	      1.99911136	     39.31801995	    -21.47315674	    -12.41519751	     -3.05182079	      3.92779230	     -1.87714266	      2.10165521	     -5.68460159	     13.01771499	     13.51426018
